<?xml version="1.0" encoding="UTF-8"?>
<svg xmlns="http://www.w3.org/2000/svg" width="48" height="48" viewBox="0 0 48 48">
  <path fill="#000000" d="M33.5 25.3c-.05-4.4 3.6-6.5 3.76-6.6-2.05-3-5.24-3.4-6.38-3.45-2.72-.27-5.3 1.6-6.68 1.6-1.37 0-3.5-1.56-5.74-1.52-2.96.04-5.68 1.72-7.2 4.37-3.07 5.33-.78 13.22 2.2 17.55 1.46 2.12 3.2 4.5 5.48 4.42 2.2-.09 3.03-1.42 5.7-1.42 2.65 0 3.4 1.42 5.72 1.38 2.36-.04 3.86-2.16 5.3-4.3 1.67-2.46 2.36-4.85 2.4-4.97-.05-.02-4.6-1.77-4.65-7.02zM29.13 12.4c1.21-1.47 2.03-3.5 1.8-5.54-1.75.07-3.86 1.16-5.11 2.62-1.12 1.3-2.1 3.37-1.84 5.36 1.95.15 3.94-.99 5.15-2.44z"/>
</svg>
